<mxfile host="65bd71144e" pages="2">
    <diagram id="lJBfK8prxVRhPcDOEmRC" name="Page-2">
        <mxGraphModel dx="1048" dy="631" grid="0" gridSize="49" guides="1" tooltips="1" connect="1" arrows="1" fold="1" page="1" pageScale="1" pageWidth="1600" pageHeight="900" background="#D6D6D6" math="0" shadow="0">
            <root>
                <mxCell id="0"/>
                <mxCell id="1" parent="0"/>
                <mxCell id="dBHgf9cFqM27kFAd7DCH-3" style="rounded=1;sketch=1;hachureGap=4;jiggle=2;curveFitting=1;orthogonalLoop=1;jettySize=auto;html=1;exitX=0;exitY=0.322;exitDx=0;exitDy=0;entryX=1;entryY=1;entryDx=0;entryDy=0;fontFamily=Architects Daughter;fontSource=https%3A%2F%2Ffonts.googleapis.com%2Fcss%3Ffamily%3DArchitects%2BDaughter;fontSize=16;exitPerimeter=0;strokeWidth=2;strokeColor=#003800;" parent="1" source="DGJEwcqjDVETwr9-OVBS-3" target="FKTd8FJMSbVs8_6Q-IS1-1" edge="1">
                    <mxGeometry relative="1" as="geometry">
                        <mxPoint x="580" y="370" as="sourcePoint"/>
                    </mxGeometry>
                </mxCell>
                <mxCell id="dBHgf9cFqM27kFAd7DCH-4" style="rounded=1;sketch=1;hachureGap=4;jiggle=2;curveFitting=1;orthogonalLoop=1;jettySize=auto;html=1;entryX=1;entryY=0.5;entryDx=0;entryDy=0;fontFamily=Architects Daughter;fontSource=https%3A%2F%2Ffonts.googleapis.com%2Fcss%3Ffamily%3DArchitects%2BDaughter;fontSize=16;strokeWidth=2;strokeColor=#003800;" parent="1" source="DGJEwcqjDVETwr9-OVBS-3" target="dBHgf9cFqM27kFAd7DCH-1" edge="1">
                    <mxGeometry relative="1" as="geometry">
                        <mxPoint x="580" y="400" as="sourcePoint"/>
                    </mxGeometry>
                </mxCell>
                <mxCell id="dBHgf9cFqM27kFAd7DCH-5" style="rounded=1;sketch=1;hachureGap=4;jiggle=2;curveFitting=1;orthogonalLoop=1;jettySize=auto;html=1;exitX=0.056;exitY=0.778;exitDx=0;exitDy=0;entryX=1;entryY=0;entryDx=0;entryDy=0;fontFamily=Architects Daughter;fontSource=https%3A%2F%2Ffonts.googleapis.com%2Fcss%3Ffamily%3DArchitects%2BDaughter;fontSize=16;exitPerimeter=0;strokeWidth=2;strokeColor=#003800;" parent="1" source="DGJEwcqjDVETwr9-OVBS-3" target="dBHgf9cFqM27kFAd7DCH-2" edge="1">
                    <mxGeometry relative="1" as="geometry">
                        <mxPoint x="580" y="430" as="sourcePoint"/>
                    </mxGeometry>
                </mxCell>
                <mxCell id="sg76Kp0iJmOYsMnc0KKo-1" style="rounded=1;sketch=1;hachureGap=4;jiggle=2;curveFitting=1;orthogonalLoop=1;jettySize=auto;html=1;entryX=0.5;entryY=0;entryDx=0;entryDy=0;fontFamily=Architects Daughter;fontSource=https%3A%2F%2Ffonts.googleapis.com%2Fcss%3Ffamily%3DArchitects%2BDaughter;fontSize=16;strokeColor=#003800;strokeWidth=2;" parent="1" source="DGJEwcqjDVETwr9-OVBS-3" target="ICA8Ov3XOzPT_Pr_ku3s-1" edge="1">
                    <mxGeometry relative="1" as="geometry">
                        <mxPoint x="640" y="430" as="sourcePoint"/>
                    </mxGeometry>
                </mxCell>
                <mxCell id="sg76Kp0iJmOYsMnc0KKo-2" style="rounded=1;sketch=1;hachureGap=4;jiggle=2;curveFitting=1;orthogonalLoop=1;jettySize=auto;html=1;exitX=0.4;exitY=0.978;exitDx=0;exitDy=0;entryX=0.5;entryY=0;entryDx=0;entryDy=0;fontFamily=Architects Daughter;fontSource=https%3A%2F%2Ffonts.googleapis.com%2Fcss%3Ffamily%3DArchitects%2BDaughter;fontSize=16;exitPerimeter=0;strokeColor=#003800;strokeWidth=2;" parent="1" source="DGJEwcqjDVETwr9-OVBS-3" target="ICA8Ov3XOzPT_Pr_ku3s-2" edge="1">
                    <mxGeometry relative="1" as="geometry">
                        <mxPoint x="670" y="430" as="sourcePoint"/>
                    </mxGeometry>
                </mxCell>
                <mxCell id="bMK--N1_vSF7hzGGuqKS-2" value="" style="rounded=1;sketch=1;hachureGap=4;jiggle=2;curveFitting=1;orthogonalLoop=1;jettySize=auto;html=1;fontFamily=Architects Daughter;fontSource=https%3A%2F%2Ffonts.googleapis.com%2Fcss%3Ffamily%3DArchitects%2BDaughter;fontSize=16;exitX=0.922;exitY=0.778;exitDx=0;exitDy=0;exitPerimeter=0;strokeColor=#003800;strokeWidth=2;" parent="1" source="DGJEwcqjDVETwr9-OVBS-3" target="bMK--N1_vSF7hzGGuqKS-1" edge="1">
                    <mxGeometry relative="1" as="geometry">
                        <mxPoint x="689.2857142857142" y="430" as="sourcePoint"/>
                    </mxGeometry>
                </mxCell>
                <mxCell id="bMK--N1_vSF7hzGGuqKS-4" value="" style="rounded=1;sketch=1;hachureGap=4;jiggle=2;curveFitting=1;orthogonalLoop=1;jettySize=auto;html=1;fontFamily=Architects Daughter;fontSource=https%3A%2F%2Ffonts.googleapis.com%2Fcss%3Ffamily%3DArchitects%2BDaughter;fontSize=16;exitX=1;exitY=0.5;exitDx=0;exitDy=0;fillColor=#008a00;strokeColor=#003800;strokeWidth=2;" parent="1" source="DGJEwcqjDVETwr9-OVBS-3" target="bMK--N1_vSF7hzGGuqKS-3" edge="1">
                    <mxGeometry relative="1" as="geometry">
                        <mxPoint x="700" y="397.391304347826" as="sourcePoint"/>
                    </mxGeometry>
                </mxCell>
                <mxCell id="7GL4Ds3x8wnqYHLI3vcl-6" value="" style="sketch=1;hachureGap=4;jiggle=2;curveFitting=1;orthogonalLoop=1;jettySize=auto;html=1;fontFamily=Architects Daughter;fontSource=https%3A%2F%2Ffonts.googleapis.com%2Fcss%3Ffamily%3DArchitects%2BDaughter;fontSize=16;strokeColor=#003800;strokeWidth=2;" parent="1" source="7GL4Ds3x8wnqYHLI3vcl-1" target="7GL4Ds3x8wnqYHLI3vcl-5" edge="1">
                    <mxGeometry relative="1" as="geometry"/>
                </mxCell>
                <mxCell id="7GL4Ds3x8wnqYHLI3vcl-1" value="Computer" style="whiteSpace=wrap;html=1;fontSize=20;fontFamily=Architects Daughter;sketch=1;hachureGap=4;jiggle=2;curveFitting=1;fontSource=https%3A%2F%2Ffonts.googleapis.com%2Fcss%3Ffamily%3DArchitects%2BDaughter;rounded=1;fillColor=#CDE62C;strokeColor=#003800;fontColor=#000000;fillStyle=solid;strokeWidth=2;fontStyle=1;" parent="1" vertex="1">
                    <mxGeometry x="540" y="200" width="120" height="60" as="geometry"/>
                </mxCell>
                <mxCell id="7GL4Ds3x8wnqYHLI3vcl-3" value="Bouwen" style="whiteSpace=wrap;html=1;fontSize=20;fontFamily=Architects Daughter;sketch=1;hachureGap=4;jiggle=2;curveFitting=1;fontSource=https%3A%2F%2Ffonts.googleapis.com%2Fcss%3Ffamily%3DArchitects%2BDaughter;rounded=1;fillColor=#CDE62C;strokeColor=#003800;fontColor=#000000;fillStyle=solid;strokeWidth=2;fontStyle=1;" parent="1" vertex="1">
                    <mxGeometry x="490" y="90" width="120" height="60" as="geometry"/>
                </mxCell>
                <mxCell id="7GL4Ds3x8wnqYHLI3vcl-8" value="" style="sketch=1;hachureGap=4;jiggle=2;curveFitting=1;orthogonalLoop=1;jettySize=auto;html=1;fontFamily=Architects Daughter;fontSource=https%3A%2F%2Ffonts.googleapis.com%2Fcss%3Ffamily%3DArchitects%2BDaughter;fontSize=16;strokeColor=#003800;strokeWidth=2;" parent="1" source="7GL4Ds3x8wnqYHLI3vcl-5" target="7GL4Ds3x8wnqYHLI3vcl-7" edge="1">
                    <mxGeometry relative="1" as="geometry"/>
                </mxCell>
                <mxCell id="7GL4Ds3x8wnqYHLI3vcl-10" value="" style="sketch=1;hachureGap=4;jiggle=2;curveFitting=1;orthogonalLoop=1;jettySize=auto;html=1;fontFamily=Architects Daughter;fontSource=https%3A%2F%2Ffonts.googleapis.com%2Fcss%3Ffamily%3DArchitects%2BDaughter;fontSize=16;strokeColor=#003800;strokeWidth=2;" parent="1" source="7GL4Ds3x8wnqYHLI3vcl-5" target="7GL4Ds3x8wnqYHLI3vcl-9" edge="1">
                    <mxGeometry relative="1" as="geometry"/>
                </mxCell>
                <mxCell id="7GL4Ds3x8wnqYHLI3vcl-5" value="OS" style="whiteSpace=wrap;html=1;fontSize=20;fontFamily=Architects Daughter;sketch=1;hachureGap=4;jiggle=2;curveFitting=1;fontSource=https%3A%2F%2Ffonts.googleapis.com%2Fcss%3Ffamily%3DArchitects%2BDaughter;rounded=1;fillColor=#CDE62C;strokeColor=#003800;fontColor=#000000;fillStyle=solid;strokeWidth=2;fontStyle=1;" parent="1" vertex="1">
                    <mxGeometry x="710" y="200" width="120" height="60" as="geometry"/>
                </mxCell>
                <mxCell id="7GL4Ds3x8wnqYHLI3vcl-7" value="Windows" style="whiteSpace=wrap;html=1;fontSize=20;fontFamily=Architects Daughter;sketch=1;hachureGap=4;jiggle=2;curveFitting=1;fontSource=https%3A%2F%2Ffonts.googleapis.com%2Fcss%3Ffamily%3DArchitects%2BDaughter;rounded=1;fillColor=#CDE62C;strokeColor=#003800;fontColor=#000000;fillStyle=solid;strokeWidth=2;fontStyle=1;" parent="1" vertex="1">
                    <mxGeometry x="690" y="90" width="120" height="60" as="geometry"/>
                </mxCell>
                <mxCell id="7GL4Ds3x8wnqYHLI3vcl-12" value="" style="sketch=1;hachureGap=4;jiggle=2;curveFitting=1;orthogonalLoop=1;jettySize=auto;html=1;fontFamily=Architects Daughter;fontSource=https%3A%2F%2Ffonts.googleapis.com%2Fcss%3Ffamily%3DArchitects%2BDaughter;fontSize=16;strokeColor=#003800;strokeWidth=2;" parent="1" source="7GL4Ds3x8wnqYHLI3vcl-9" target="7GL4Ds3x8wnqYHLI3vcl-11" edge="1">
                    <mxGeometry relative="1" as="geometry"/>
                </mxCell>
                <mxCell id="7GL4Ds3x8wnqYHLI3vcl-14" value="" style="sketch=1;hachureGap=4;jiggle=2;curveFitting=1;orthogonalLoop=1;jettySize=auto;html=1;fontFamily=Architects Daughter;fontSource=https%3A%2F%2Ffonts.googleapis.com%2Fcss%3Ffamily%3DArchitects%2BDaughter;fontSize=16;strokeColor=#003800;strokeWidth=2;" parent="1" source="7GL4Ds3x8wnqYHLI3vcl-9" target="7GL4Ds3x8wnqYHLI3vcl-13" edge="1">
                    <mxGeometry relative="1" as="geometry"/>
                </mxCell>
                <mxCell id="sg76Kp0iJmOYsMnc0KKo-4" value="" style="edgeStyle=orthogonalEdgeStyle;rounded=1;sketch=1;hachureGap=4;jiggle=2;curveFitting=1;orthogonalLoop=1;jettySize=auto;html=1;fontFamily=Architects Daughter;fontSource=https%3A%2F%2Ffonts.googleapis.com%2Fcss%3Ffamily%3DArchitects%2BDaughter;fontSize=16;strokeColor=#003800;strokeWidth=2;" parent="1" source="7GL4Ds3x8wnqYHLI3vcl-9" target="sg76Kp0iJmOYsMnc0KKo-3" edge="1">
                    <mxGeometry relative="1" as="geometry"/>
                </mxCell>
                <mxCell id="7GL4Ds3x8wnqYHLI3vcl-9" value="Linux" style="whiteSpace=wrap;html=1;fontSize=20;fontFamily=Architects Daughter;sketch=1;hachureGap=4;jiggle=2;curveFitting=1;fontSource=https%3A%2F%2Ffonts.googleapis.com%2Fcss%3Ffamily%3DArchitects%2BDaughter;rounded=1;fillColor=#CDE62C;strokeColor=#003800;fontColor=#000000;fillStyle=solid;strokeWidth=2;fontStyle=1;" parent="1" vertex="1">
                    <mxGeometry x="880" y="200" width="120" height="60" as="geometry"/>
                </mxCell>
                <mxCell id="7GL4Ds3x8wnqYHLI3vcl-11" value="Arch Linux" style="whiteSpace=wrap;html=1;fontSize=20;fontFamily=Architects Daughter;sketch=1;hachureGap=4;jiggle=2;curveFitting=1;fontSource=https%3A%2F%2Ffonts.googleapis.com%2Fcss%3Ffamily%3DArchitects%2BDaughter;rounded=1;fillColor=#CDE62C;strokeColor=#003800;fontColor=#000000;fillStyle=solid;strokeWidth=2;fontStyle=1;" parent="1" vertex="1">
                    <mxGeometry x="850" y="80" width="120" height="60" as="geometry"/>
                </mxCell>
                <mxCell id="7GL4Ds3x8wnqYHLI3vcl-13" value="Ubuntu Server" style="whiteSpace=wrap;html=1;fontSize=20;fontFamily=Architects Daughter;sketch=1;hachureGap=4;jiggle=2;curveFitting=1;fontSource=https%3A%2F%2Ffonts.googleapis.com%2Fcss%3Ffamily%3DArchitects%2BDaughter;rounded=1;fillColor=#CDE62C;strokeColor=#003800;fontColor=#000000;fillStyle=solid;strokeWidth=2;fontStyle=1;" parent="1" vertex="1">
                    <mxGeometry x="1010" y="110" width="120" height="60" as="geometry"/>
                </mxCell>
                <mxCell id="FKTd8FJMSbVs8_6Q-IS1-1" value="Probleem Oplossen" style="whiteSpace=wrap;html=1;sketch=1;hachureGap=4;jiggle=2;curveFitting=1;fontFamily=Architects Daughter;fontSource=https%3A%2F%2Ffonts.googleapis.com%2Fcss%3Ffamily%3DArchitects%2BDaughter;fontSize=20;rounded=1;fillColor=#CDE62C;strokeColor=#003800;fontColor=#000000;fillStyle=solid;strokeWidth=2;fontStyle=1;" parent="1" vertex="1">
                    <mxGeometry x="360" y="220" width="120" height="60" as="geometry"/>
                </mxCell>
                <mxCell id="dBHgf9cFqM27kFAd7DCH-1" value="Flexibel" style="whiteSpace=wrap;html=1;rounded=1;sketch=1;hachureGap=4;jiggle=2;curveFitting=1;fontFamily=Architects Daughter;fontSource=https%3A%2F%2Ffonts.googleapis.com%2Fcss%3Ffamily%3DArchitects%2BDaughter;fontSize=20;fillColor=#CDE62C;strokeColor=#003800;fontColor=#000000;fillStyle=solid;strokeWidth=2;fontStyle=1;" parent="1" vertex="1">
                    <mxGeometry x="300" y="310" width="120" height="60" as="geometry"/>
                </mxCell>
                <mxCell id="dBHgf9cFqM27kFAd7DCH-2" value="Kritische Denker" style="whiteSpace=wrap;html=1;rounded=1;sketch=1;hachureGap=4;jiggle=2;curveFitting=1;fontFamily=Architects Daughter;fontSource=https%3A%2F%2Ffonts.googleapis.com%2Fcss%3Ffamily%3DArchitects%2BDaughter;fontSize=20;fillColor=#CDE62C;strokeColor=#003800;fontColor=#000000;fillStyle=solid;strokeWidth=2;fontStyle=1;" parent="1" vertex="1">
                    <mxGeometry x="350" y="500" width="120" height="60" as="geometry"/>
                </mxCell>
                <mxCell id="ICA8Ov3XOzPT_Pr_ku3s-1" value="Geduldig" style="whiteSpace=wrap;html=1;rounded=1;sketch=1;hachureGap=4;jiggle=2;curveFitting=1;fontFamily=Architects Daughter;fontSource=https%3A%2F%2Ffonts.googleapis.com%2Fcss%3Ffamily%3DArchitects%2BDaughter;fontSize=20;fillColor=#CDE62C;strokeColor=#003800;fontColor=#000000;fillStyle=solid;strokeWidth=2;fontStyle=1;" parent="1" vertex="1">
                    <mxGeometry x="500" y="540" width="120" height="60" as="geometry"/>
                </mxCell>
                <mxCell id="ICA8Ov3XOzPT_Pr_ku3s-2" value="Observeren" style="whiteSpace=wrap;html=1;rounded=1;sketch=1;hachureGap=4;jiggle=2;curveFitting=1;fontFamily=Architects Daughter;fontSource=https%3A%2F%2Ffonts.googleapis.com%2Fcss%3Ffamily%3DArchitects%2BDaughter;fontSize=20;fillColor=#CDE62C;strokeColor=#003800;fontColor=#000000;fillStyle=solid;strokeWidth=2;fontStyle=1;" parent="1" vertex="1">
                    <mxGeometry x="660" y="550" width="120" height="60" as="geometry"/>
                </mxCell>
                <mxCell id="sg76Kp0iJmOYsMnc0KKo-3" value="Parrot OS (HTB ver)" style="whiteSpace=wrap;html=1;fontSize=20;fontFamily=Architects Daughter;sketch=1;hachureGap=4;jiggle=2;curveFitting=1;fontSource=https%3A%2F%2Ffonts.googleapis.com%2Fcss%3Ffamily%3DArchitects%2BDaughter;rounded=1;fillColor=#CDE62C;strokeColor=#003800;fontColor=#000000;fillStyle=solid;strokeWidth=2;fontStyle=1;" parent="1" vertex="1">
                    <mxGeometry x="1060" y="200" width="120" height="60" as="geometry"/>
                </mxCell>
                <mxCell id="VrqIYCGYo8m3otVx9rai-2" value="" style="rounded=1;sketch=1;hachureGap=4;jiggle=2;curveFitting=1;orthogonalLoop=1;jettySize=auto;html=1;fontFamily=Architects Daughter;fontSource=https%3A%2F%2Ffonts.googleapis.com%2Fcss%3Ffamily%3DArchitects%2BDaughter;fontSize=16;strokeColor=#003800;strokeWidth=2;" parent="1" source="bMK--N1_vSF7hzGGuqKS-1" target="VrqIYCGYo8m3otVx9rai-1" edge="1">
                    <mxGeometry relative="1" as="geometry"/>
                </mxCell>
                <mxCell id="VrqIYCGYo8m3otVx9rai-4" value="" style="rounded=1;sketch=1;hachureGap=4;jiggle=2;curveFitting=1;orthogonalLoop=1;jettySize=auto;html=1;fontFamily=Architects Daughter;fontSource=https%3A%2F%2Ffonts.googleapis.com%2Fcss%3Ffamily%3DArchitects%2BDaughter;fontSize=16;strokeColor=#003800;strokeWidth=2;" parent="1" source="bMK--N1_vSF7hzGGuqKS-1" target="VrqIYCGYo8m3otVx9rai-3" edge="1">
                    <mxGeometry relative="1" as="geometry"/>
                </mxCell>
                <mxCell id="bMK--N1_vSF7hzGGuqKS-1" value="Talen" style="whiteSpace=wrap;html=1;fontSize=20;fontFamily=Architects Daughter;sketch=1;hachureGap=4;jiggle=2;curveFitting=1;fontSource=https%3A%2F%2Ffonts.googleapis.com%2Fcss%3Ffamily%3DArchitects%2BDaughter;rounded=1;fillColor=#CDE62C;strokeColor=#003800;fontColor=#000000;fillStyle=solid;strokeWidth=2;fontStyle=1;" parent="1" vertex="1">
                    <mxGeometry x="810" y="510" width="120" height="60" as="geometry"/>
                </mxCell>
                <mxCell id="VrqIYCGYo8m3otVx9rai-7" value="" style="rounded=1;sketch=1;hachureGap=4;jiggle=2;curveFitting=1;orthogonalLoop=1;jettySize=auto;html=1;fontFamily=Architects Daughter;fontSource=https%3A%2F%2Ffonts.googleapis.com%2Fcss%3Ffamily%3DArchitects%2BDaughter;fontSize=16;fontColor=#003800;strokeColor=#003800;strokeWidth=2;" parent="1" source="bMK--N1_vSF7hzGGuqKS-3" target="VrqIYCGYo8m3otVx9rai-5" edge="1">
                    <mxGeometry relative="1" as="geometry"/>
                </mxCell>
                <mxCell id="VrqIYCGYo8m3otVx9rai-9" value="" style="rounded=1;sketch=1;hachureGap=4;jiggle=2;curveFitting=1;orthogonalLoop=1;jettySize=auto;html=1;fontFamily=Architects Daughter;fontSource=https%3A%2F%2Ffonts.googleapis.com%2Fcss%3Ffamily%3DArchitects%2BDaughter;fontSize=16;strokeWidth=2;strokeColor=#003800;" parent="1" source="bMK--N1_vSF7hzGGuqKS-3" target="VrqIYCGYo8m3otVx9rai-8" edge="1">
                    <mxGeometry relative="1" as="geometry"/>
                </mxCell>
                <mxCell id="bMK--N1_vSF7hzGGuqKS-3" value="Programmeren" style="whiteSpace=wrap;html=1;fontSize=20;fontFamily=Architects Daughter;sketch=1;hachureGap=4;jiggle=2;curveFitting=1;fontSource=https%3A%2F%2Ffonts.googleapis.com%2Fcss%3Ffamily%3DArchitects%2BDaughter;rounded=1;fillColor=#CDE62C;fillStyle=solid;strokeWidth=2;strokeColor=#003800;fontColor=#000000;fontStyle=1" parent="1" vertex="1">
                    <mxGeometry x="790" y="370" width="160" height="60" as="geometry"/>
                </mxCell>
                <mxCell id="VrqIYCGYo8m3otVx9rai-1" value="Nederlands" style="whiteSpace=wrap;html=1;fontSize=20;fontFamily=Architects Daughter;sketch=1;hachureGap=4;jiggle=2;curveFitting=1;fontSource=https%3A%2F%2Ffonts.googleapis.com%2Fcss%3Ffamily%3DArchitects%2BDaughter;rounded=1;fillColor=#CDE62C;strokeColor=#003800;fontColor=#000000;fillStyle=solid;strokeWidth=2;fontStyle=1;" parent="1" vertex="1">
                    <mxGeometry x="780" y="620" width="120" height="60" as="geometry"/>
                </mxCell>
                <mxCell id="VrqIYCGYo8m3otVx9rai-3" value="Engels" style="whiteSpace=wrap;html=1;fontSize=20;fontFamily=Architects Daughter;sketch=1;hachureGap=4;jiggle=2;curveFitting=1;fontSource=https%3A%2F%2Ffonts.googleapis.com%2Fcss%3Ffamily%3DArchitects%2BDaughter;rounded=1;fillColor=#CDE62C;strokeColor=#003800;fontColor=#000000;fillStyle=solid;strokeWidth=2;fontStyle=1;" parent="1" vertex="1">
                    <mxGeometry x="940" y="620" width="120" height="60" as="geometry"/>
                </mxCell>
                <mxCell id="VrqIYCGYo8m3otVx9rai-11" value="" style="rounded=1;sketch=1;hachureGap=4;jiggle=2;curveFitting=1;orthogonalLoop=1;jettySize=auto;html=1;fontFamily=Architects Daughter;fontSource=https%3A%2F%2Ffonts.googleapis.com%2Fcss%3Ffamily%3DArchitects%2BDaughter;fontSize=16;strokeColor=#003800;strokeWidth=2;" parent="1" source="VrqIYCGYo8m3otVx9rai-5" target="VrqIYCGYo8m3otVx9rai-10" edge="1">
                    <mxGeometry relative="1" as="geometry"/>
                </mxCell>
                <mxCell id="VrqIYCGYo8m3otVx9rai-13" value="" style="rounded=1;sketch=1;hachureGap=4;jiggle=2;curveFitting=1;orthogonalLoop=1;jettySize=auto;html=1;fontFamily=Architects Daughter;fontSource=https%3A%2F%2Ffonts.googleapis.com%2Fcss%3Ffamily%3DArchitects%2BDaughter;fontSize=16;strokeWidth=2;strokeColor=#003800;" parent="1" source="VrqIYCGYo8m3otVx9rai-5" target="VrqIYCGYo8m3otVx9rai-12" edge="1">
                    <mxGeometry relative="1" as="geometry"/>
                </mxCell>
                <mxCell id="VrqIYCGYo8m3otVx9rai-15" value="" style="rounded=1;sketch=1;hachureGap=4;jiggle=2;curveFitting=1;orthogonalLoop=1;jettySize=auto;html=1;fontFamily=Architects Daughter;fontSource=https%3A%2F%2Ffonts.googleapis.com%2Fcss%3Ffamily%3DArchitects%2BDaughter;fontSize=16;strokeWidth=2;strokeColor=#003800;" parent="1" source="VrqIYCGYo8m3otVx9rai-5" target="VrqIYCGYo8m3otVx9rai-14" edge="1">
                    <mxGeometry relative="1" as="geometry"/>
                </mxCell>
                <mxCell id="VrqIYCGYo8m3otVx9rai-5" value="Website" style="whiteSpace=wrap;html=1;fontSize=20;fontFamily=Architects Daughter;sketch=1;hachureGap=4;jiggle=2;curveFitting=1;fontSource=https%3A%2F%2Ffonts.googleapis.com%2Fcss%3Ffamily%3DArchitects%2BDaughter;rounded=1;fillColor=#CDE62C;strokeColor=#003800;fontColor=#000000;fillStyle=solid;strokeWidth=2;fontStyle=1;" parent="1" vertex="1">
                    <mxGeometry x="1060" y="330" width="120" height="60" as="geometry"/>
                </mxCell>
                <mxCell id="VrqIYCGYo8m3otVx9rai-8" value="Programma" style="whiteSpace=wrap;html=1;fontSize=20;fontFamily=Architects Daughter;sketch=1;hachureGap=4;jiggle=2;curveFitting=1;fontSource=https%3A%2F%2Ffonts.googleapis.com%2Fcss%3Ffamily%3DArchitects%2BDaughter;rounded=1;fillColor=#CDE62C;fillStyle=solid;strokeWidth=2;strokeColor=#003800;fontColor=#000000;fontStyle=1" parent="1" vertex="1">
                    <mxGeometry x="1025" y="450" width="120" height="60" as="geometry"/>
                </mxCell>
                <mxCell id="VrqIYCGYo8m3otVx9rai-10" value="HTML" style="whiteSpace=wrap;html=1;fontSize=20;fontFamily=Architects Daughter;sketch=1;hachureGap=4;jiggle=2;curveFitting=1;fontSource=https%3A%2F%2Ffonts.googleapis.com%2Fcss%3Ffamily%3DArchitects%2BDaughter;rounded=1;fillColor=#CDE62C;strokeColor=#003800;fontColor=#000000;fillStyle=solid;strokeWidth=2;fontStyle=1;" parent="1" vertex="1">
                    <mxGeometry x="1230" y="330" width="120" height="60" as="geometry"/>
                </mxCell>
                <mxCell id="VrqIYCGYo8m3otVx9rai-12" value="CSS" style="whiteSpace=wrap;html=1;fontSize=20;fontFamily=Architects Daughter;sketch=1;hachureGap=4;jiggle=2;curveFitting=1;fontSource=https%3A%2F%2Ffonts.googleapis.com%2Fcss%3Ffamily%3DArchitects%2BDaughter;rounded=1;fillColor=#CDE62C;strokeColor=#003800;fontColor=#000000;fillStyle=solid;strokeWidth=2;fontStyle=1;" parent="1" vertex="1">
                    <mxGeometry x="1210" y="240" width="120" height="60" as="geometry"/>
                </mxCell>
                <mxCell id="VrqIYCGYo8m3otVx9rai-14" value="JS&lt;br&gt;(Javascript)" style="whiteSpace=wrap;html=1;fontSize=20;fontFamily=Architects Daughter;sketch=1;hachureGap=4;jiggle=2;curveFitting=1;fontSource=https%3A%2F%2Ffonts.googleapis.com%2Fcss%3Ffamily%3DArchitects%2BDaughter;rounded=1;fillColor=#CDE62C;strokeColor=#003800;fontColor=#000000;fillStyle=solid;strokeWidth=2;fontStyle=1;" parent="1" vertex="1">
                    <mxGeometry x="1220" y="430" width="120" height="60" as="geometry"/>
                </mxCell>
                <mxCell id="VrqIYCGYo8m3otVx9rai-17" value="Autohotkey" style="whiteSpace=wrap;html=1;rounded=1;sketch=1;hachureGap=4;jiggle=2;curveFitting=1;fontFamily=Architects Daughter;fontSource=https%3A%2F%2Ffonts.googleapis.com%2Fcss%3Ffamily%3DArchitects%2BDaughter;fontSize=20;fillColor=#CDE62C;strokeColor=#003800;fontColor=#000000;fillStyle=solid;strokeWidth=2;fontStyle=1;" parent="1" vertex="1">
                    <mxGeometry x="1090" y="620" width="120" height="60" as="geometry"/>
                </mxCell>
                <mxCell id="VrqIYCGYo8m3otVx9rai-18" style="rounded=1;sketch=1;hachureGap=4;jiggle=2;curveFitting=1;orthogonalLoop=1;jettySize=auto;html=1;exitX=0.5;exitY=1;exitDx=0;exitDy=0;entryX=0.25;entryY=0;entryDx=0;entryDy=0;fontFamily=Architects Daughter;fontSource=https%3A%2F%2Ffonts.googleapis.com%2Fcss%3Ffamily%3DArchitects%2BDaughter;fontSize=16;strokeColor=#003800;strokeWidth=2;" parent="1" source="VrqIYCGYo8m3otVx9rai-8" target="VrqIYCGYo8m3otVx9rai-17" edge="1">
                    <mxGeometry relative="1" as="geometry"/>
                </mxCell>
                <mxCell id="gaqq1DIrmuj75L9CFIoo-3" style="rounded=0;sketch=1;hachureGap=4;jiggle=2;curveFitting=1;orthogonalLoop=1;jettySize=auto;html=1;exitX=0;exitY=0.5;exitDx=0;exitDy=0;entryX=1;entryY=0.5;entryDx=0;entryDy=0;fontFamily=Architects Daughter;fontSource=https%3A%2F%2Ffonts.googleapis.com%2Fcss%3Ffamily%3DArchitects%2BDaughter;fontSize=16;strokeWidth=2;strokeColor=#003800;" parent="1" source="DGJEwcqjDVETwr9-OVBS-3" target="gaqq1DIrmuj75L9CFIoo-2" edge="1">
                    <mxGeometry relative="1" as="geometry"/>
                </mxCell>
                <mxCell id="DGJEwcqjDVETwr9-OVBS-3" value="Sander" style="ellipse;whiteSpace=wrap;html=1;aspect=fixed;rounded=1;sketch=1;hachureGap=4;jiggle=2;curveFitting=1;fontFamily=Architects Daughter;fontSource=https%3A%2F%2Ffonts.googleapis.com%2Fcss%3Ffamily%3DArchitects%2BDaughter;fontSize=20;fillColor=#CDE62C;strokeColor=#003800;fontColor=#000000;fillStyle=solid;strokeWidth=2;fontStyle=1;" parent="1" vertex="1">
                    <mxGeometry x="590" y="330" width="90" height="90" as="geometry"/>
                </mxCell>
                <mxCell id="gaqq1DIrmuj75L9CFIoo-5" value="" style="rounded=0;sketch=1;hachureGap=4;jiggle=2;curveFitting=1;orthogonalLoop=1;jettySize=auto;html=1;fontFamily=Architects Daughter;fontSource=https%3A%2F%2Ffonts.googleapis.com%2Fcss%3Ffamily%3DArchitects%2BDaughter;fontSize=16;strokeColor=#003800;strokeWidth=2;" parent="1" source="gaqq1DIrmuj75L9CFIoo-2" target="gaqq1DIrmuj75L9CFIoo-4" edge="1">
                    <mxGeometry relative="1" as="geometry"/>
                </mxCell>
                <mxCell id="gaqq1DIrmuj75L9CFIoo-2" value="Introvert" style="whiteSpace=wrap;html=1;sketch=1;hachureGap=4;jiggle=2;curveFitting=1;fontFamily=Architects Daughter;fontSource=https%3A%2F%2Ffonts.googleapis.com%2Fcss%3Ffamily%3DArchitects%2BDaughter;fontSize=20;fillColor=#CDE62C;strokeColor=#003800;fontColor=#000000;rounded=1;fillStyle=solid;strokeWidth=2;fontStyle=1;" parent="1" vertex="1">
                    <mxGeometry x="310" y="410" width="120" height="60" as="geometry"/>
                </mxCell>
                <mxCell id="gaqq1DIrmuj75L9CFIoo-4" value="Stil" style="whiteSpace=wrap;html=1;fontSize=20;fontFamily=Architects Daughter;sketch=1;hachureGap=4;jiggle=2;curveFitting=1;fontSource=https%3A%2F%2Ffonts.googleapis.com%2Fcss%3Ffamily%3DArchitects%2BDaughter;fillColor=#CDE62C;strokeColor=#003800;fontColor=#000000;rounded=1;fillStyle=solid;strokeWidth=2;fontStyle=1;" parent="1" vertex="1">
                    <mxGeometry x="150" y="400" width="120" height="60" as="geometry"/>
                </mxCell>
                <mxCell id="a_v9IAJ8nVV1_tyl91rn-1" value="Snel accuraat Typen&lt;br&gt;(60wpm)" style="whiteSpace=wrap;html=1;sketch=1;hachureGap=4;jiggle=2;curveFitting=1;fontFamily=Architects Daughter;fontSource=https%3A%2F%2Ffonts.googleapis.com%2Fcss%3Ffamily%3DArchitects%2BDaughter;fontSize=20;fillColor=#CDE62C;fillStyle=solid;strokeColor=#003800;strokeWidth=2;fontStyle=1;fontColor=#000000;" parent="1" vertex="1">
                    <mxGeometry x="750" y="273" width="190" height="76" as="geometry"/>
                </mxCell>
                <mxCell id="3" value="" style="rounded=1;sketch=1;hachureGap=4;jiggle=2;curveFitting=1;orthogonalLoop=1;jettySize=auto;html=1;fontFamily=Architects Daughter;fontSource=https%3A%2F%2Ffonts.googleapis.com%2Fcss%3Ffamily%3DArchitects%2BDaughter;fontSize=16;exitX=0.311;exitY=0.013;exitDx=0;exitDy=0;fillColor=#008a00;strokeColor=#003800;strokeWidth=2;entryX=0.57;entryY=1.013;entryDx=0;entryDy=0;entryPerimeter=0;exitPerimeter=0;" parent="1" source="DGJEwcqjDVETwr9-OVBS-3" target="7GL4Ds3x8wnqYHLI3vcl-1" edge="1">
                    <mxGeometry relative="1" as="geometry">
                        <mxPoint x="578" y="300" as="sourcePoint"/>
                        <mxPoint x="688" y="314.47368421052636" as="targetPoint"/>
                    </mxGeometry>
                </mxCell>
                <mxCell id="4" value="" style="rounded=1;sketch=1;hachureGap=4;jiggle=2;curveFitting=1;orthogonalLoop=1;jettySize=auto;html=1;fontFamily=Architects Daughter;fontSource=https%3A%2F%2Ffonts.googleapis.com%2Fcss%3Ffamily%3DArchitects%2BDaughter;fontSize=16;fillColor=#008a00;strokeColor=#003800;strokeWidth=2;" parent="1" edge="1">
                    <mxGeometry relative="1" as="geometry">
                        <mxPoint x="597" y="198" as="sourcePoint"/>
                        <mxPoint x="568" y="149" as="targetPoint"/>
                    </mxGeometry>
                </mxCell>
                <mxCell id="5" value="" style="rounded=1;sketch=1;hachureGap=4;jiggle=2;curveFitting=1;orthogonalLoop=1;jettySize=auto;html=1;fontFamily=Architects Daughter;fontSource=https%3A%2F%2Ffonts.googleapis.com%2Fcss%3Ffamily%3DArchitects%2BDaughter;fontSize=16;exitX=1;exitY=0;exitDx=0;exitDy=0;fillColor=#008a00;strokeColor=#003800;strokeWidth=2;entryX=0;entryY=0.418;entryDx=0;entryDy=0;entryPerimeter=0;" parent="1" source="DGJEwcqjDVETwr9-OVBS-3" target="a_v9IAJ8nVV1_tyl91rn-1" edge="1">
                    <mxGeometry relative="1" as="geometry">
                        <mxPoint x="627.99" y="341.16999999999996" as="sourcePoint"/>
                        <mxPoint x="618.4000000000001" y="270.78" as="targetPoint"/>
                    </mxGeometry>
                </mxCell>
            </root>
        </mxGraphModel>
    </diagram>
    <diagram id="OSzmch6q422nBb76zM-D" name="Page-3">
        <mxGraphModel dx="1048" dy="631" grid="0" gridSize="10" guides="1" tooltips="1" connect="1" arrows="1" fold="1" page="1" pageScale="1" pageWidth="1600" pageHeight="900" background="#D6D6D6" math="0" shadow="0">
            <root>
                <mxCell id="0"/>
                <mxCell id="1" parent="0"/>
                <mxCell id="wsx7w1LYCG1wdy5AvT3w-2" style="rounded=1;sketch=1;hachureGap=4;jiggle=2;curveFitting=1;orthogonalLoop=1;jettySize=auto;html=1;exitX=0;exitY=0.322;exitDx=0;exitDy=0;fontFamily=Architects Daughter;fontSource=https%3A%2F%2Ffonts.googleapis.com%2Fcss%3Ffamily%3DArchitects%2BDaughter;fontSize=16;exitPerimeter=0;strokeColor=#003800;strokeWidth=2;" parent="1" source="wsx7w1LYCG1wdy5AvT3w-47" target="wsx7w1LYCG1wdy5AvT3w-23" edge="1">
                    <mxGeometry relative="1" as="geometry">
                        <mxPoint x="580" y="370" as="sourcePoint"/>
                    </mxGeometry>
                </mxCell>
                <mxCell id="wsx7w1LYCG1wdy5AvT3w-3" style="rounded=1;sketch=1;hachureGap=4;jiggle=2;curveFitting=1;orthogonalLoop=1;jettySize=auto;html=1;entryX=1;entryY=0.5;entryDx=0;entryDy=0;fontFamily=Architects Daughter;fontSource=https%3A%2F%2Ffonts.googleapis.com%2Fcss%3Ffamily%3DArchitects%2BDaughter;fontSize=16;strokeColor=#003800;strokeWidth=2;" parent="1" source="wsx7w1LYCG1wdy5AvT3w-47" target="wsx7w1LYCG1wdy5AvT3w-24" edge="1">
                    <mxGeometry relative="1" as="geometry">
                        <mxPoint x="580" y="400" as="sourcePoint"/>
                    </mxGeometry>
                </mxCell>
                <mxCell id="wsx7w1LYCG1wdy5AvT3w-4" style="rounded=1;sketch=1;hachureGap=4;jiggle=2;curveFitting=1;orthogonalLoop=1;jettySize=auto;html=1;exitX=0.056;exitY=0.778;exitDx=0;exitDy=0;entryX=1;entryY=0;entryDx=0;entryDy=0;fontFamily=Architects Daughter;fontSource=https%3A%2F%2Ffonts.googleapis.com%2Fcss%3Ffamily%3DArchitects%2BDaughter;fontSize=16;exitPerimeter=0;strokeColor=#003800;strokeWidth=2;" parent="1" source="wsx7w1LYCG1wdy5AvT3w-47" target="wsx7w1LYCG1wdy5AvT3w-25" edge="1">
                    <mxGeometry relative="1" as="geometry">
                        <mxPoint x="580" y="430" as="sourcePoint"/>
                    </mxGeometry>
                </mxCell>
                <mxCell id="wsx7w1LYCG1wdy5AvT3w-5" style="rounded=1;sketch=1;hachureGap=4;jiggle=2;curveFitting=1;orthogonalLoop=1;jettySize=auto;html=1;entryX=0.5;entryY=0;entryDx=0;entryDy=0;fontFamily=Architects Daughter;fontSource=https%3A%2F%2Ffonts.googleapis.com%2Fcss%3Ffamily%3DArchitects%2BDaughter;fontSize=16;strokeColor=#003800;strokeWidth=2;" parent="1" source="wsx7w1LYCG1wdy5AvT3w-47" target="wsx7w1LYCG1wdy5AvT3w-26" edge="1">
                    <mxGeometry relative="1" as="geometry">
                        <mxPoint x="640" y="430" as="sourcePoint"/>
                    </mxGeometry>
                </mxCell>
                <mxCell id="wsx7w1LYCG1wdy5AvT3w-6" style="rounded=1;sketch=1;hachureGap=4;jiggle=2;curveFitting=1;orthogonalLoop=1;jettySize=auto;html=1;exitX=0.4;exitY=0.978;exitDx=0;exitDy=0;entryX=0.5;entryY=0;entryDx=0;entryDy=0;fontFamily=Architects Daughter;fontSource=https%3A%2F%2Ffonts.googleapis.com%2Fcss%3Ffamily%3DArchitects%2BDaughter;fontSize=16;exitPerimeter=0;strokeColor=#003800;strokeWidth=2;" parent="1" source="wsx7w1LYCG1wdy5AvT3w-47" target="wsx7w1LYCG1wdy5AvT3w-27" edge="1">
                    <mxGeometry relative="1" as="geometry">
                        <mxPoint x="670" y="430" as="sourcePoint"/>
                    </mxGeometry>
                </mxCell>
                <mxCell id="wsx7w1LYCG1wdy5AvT3w-7" value="" style="rounded=1;sketch=1;hachureGap=4;jiggle=2;curveFitting=1;orthogonalLoop=1;jettySize=auto;html=1;fontFamily=Architects Daughter;fontSource=https%3A%2F%2Ffonts.googleapis.com%2Fcss%3Ffamily%3DArchitects%2BDaughter;fontSize=16;exitX=0.922;exitY=0.778;exitDx=0;exitDy=0;exitPerimeter=0;strokeColor=#003800;strokeWidth=2;" parent="1" source="wsx7w1LYCG1wdy5AvT3w-47" target="wsx7w1LYCG1wdy5AvT3w-31" edge="1">
                    <mxGeometry relative="1" as="geometry">
                        <mxPoint x="689.2857142857142" y="430" as="sourcePoint"/>
                    </mxGeometry>
                </mxCell>
                <mxCell id="wsx7w1LYCG1wdy5AvT3w-8" value="" style="rounded=1;sketch=1;hachureGap=4;jiggle=2;curveFitting=1;orthogonalLoop=1;jettySize=auto;html=1;fontFamily=Architects Daughter;fontSource=https%3A%2F%2Ffonts.googleapis.com%2Fcss%3Ffamily%3DArchitects%2BDaughter;fontSize=16;exitX=1;exitY=0.5;exitDx=0;exitDy=0;strokeColor=#003800;strokeWidth=2;" parent="1" source="wsx7w1LYCG1wdy5AvT3w-47" target="wsx7w1LYCG1wdy5AvT3w-34" edge="1">
                    <mxGeometry relative="1" as="geometry">
                        <mxPoint x="700" y="397.391304347826" as="sourcePoint"/>
                    </mxGeometry>
                </mxCell>
                <mxCell id="wsx7w1LYCG1wdy5AvT3w-23" value="Probleem Oplossen" style="whiteSpace=wrap;html=1;sketch=1;hachureGap=4;jiggle=2;curveFitting=1;fontFamily=Architects Daughter;fontSource=https%3A%2F%2Ffonts.googleapis.com%2Fcss%3Ffamily%3DArchitects%2BDaughter;fontSize=20;rounded=1;fillColor=#CDE62C;strokeColor=#003800;fontColor=#000000;fillStyle=solid;strokeWidth=2;fontStyle=1;" parent="1" vertex="1">
                    <mxGeometry x="438" y="257" width="120" height="60" as="geometry"/>
                </mxCell>
                <mxCell id="wsx7w1LYCG1wdy5AvT3w-24" value="Flexibel" style="whiteSpace=wrap;html=1;rounded=1;sketch=1;hachureGap=4;jiggle=2;curveFitting=1;fontFamily=Architects Daughter;fontSource=https%3A%2F%2Ffonts.googleapis.com%2Fcss%3Ffamily%3DArchitects%2BDaughter;fontSize=20;fillColor=#CDE62C;strokeColor=#003800;fontColor=#000000;fillStyle=solid;strokeWidth=2;fontStyle=1;" parent="1" vertex="1">
                    <mxGeometry x="393" y="353" width="120" height="60" as="geometry"/>
                </mxCell>
                <mxCell id="wsx7w1LYCG1wdy5AvT3w-25" value="Kritische Denker" style="whiteSpace=wrap;html=1;rounded=1;sketch=1;hachureGap=4;jiggle=2;curveFitting=1;fontFamily=Architects Daughter;fontSource=https%3A%2F%2Ffonts.googleapis.com%2Fcss%3Ffamily%3DArchitects%2BDaughter;fontSize=20;fillColor=#CDE62C;strokeColor=#003800;fontColor=#000000;fillStyle=solid;strokeWidth=2;fontStyle=1;" parent="1" vertex="1">
                    <mxGeometry x="396" y="447" width="120" height="60" as="geometry"/>
                </mxCell>
                <mxCell id="wsx7w1LYCG1wdy5AvT3w-26" value="Geduldig" style="whiteSpace=wrap;html=1;rounded=1;sketch=1;hachureGap=4;jiggle=2;curveFitting=1;fontFamily=Architects Daughter;fontSource=https%3A%2F%2Ffonts.googleapis.com%2Fcss%3Ffamily%3DArchitects%2BDaughter;fontSize=20;fillColor=#CDE62C;strokeColor=#003800;fontColor=#000000;fillStyle=solid;strokeWidth=2;fontStyle=1;" parent="1" vertex="1">
                    <mxGeometry x="504" y="518" width="120" height="60" as="geometry"/>
                </mxCell>
                <mxCell id="wsx7w1LYCG1wdy5AvT3w-27" value="Observeren" style="whiteSpace=wrap;html=1;rounded=1;sketch=1;hachureGap=4;jiggle=2;curveFitting=1;fontFamily=Architects Daughter;fontSource=https%3A%2F%2Ffonts.googleapis.com%2Fcss%3Ffamily%3DArchitects%2BDaughter;fontSize=20;fillColor=#CDE62C;strokeColor=#003800;fontColor=#000000;fillStyle=solid;strokeWidth=2;fontStyle=1;" parent="1" vertex="1">
                    <mxGeometry x="662" y="503" width="120" height="60" as="geometry"/>
                </mxCell>
                <mxCell id="wsx7w1LYCG1wdy5AvT3w-29" value="" style="rounded=1;sketch=1;hachureGap=4;jiggle=2;curveFitting=1;orthogonalLoop=1;jettySize=auto;html=1;fontFamily=Architects Daughter;fontSource=https%3A%2F%2Ffonts.googleapis.com%2Fcss%3Ffamily%3DArchitects%2BDaughter;fontSize=16;strokeColor=#003800;strokeWidth=2;" parent="1" source="wsx7w1LYCG1wdy5AvT3w-31" target="wsx7w1LYCG1wdy5AvT3w-35" edge="1">
                    <mxGeometry relative="1" as="geometry"/>
                </mxCell>
                <mxCell id="wsx7w1LYCG1wdy5AvT3w-30" value="" style="rounded=1;sketch=1;hachureGap=4;jiggle=2;curveFitting=1;orthogonalLoop=1;jettySize=auto;html=1;fontFamily=Architects Daughter;fontSource=https%3A%2F%2Ffonts.googleapis.com%2Fcss%3Ffamily%3DArchitects%2BDaughter;fontSize=16;strokeColor=#003800;strokeWidth=2;" parent="1" source="wsx7w1LYCG1wdy5AvT3w-31" target="wsx7w1LYCG1wdy5AvT3w-36" edge="1">
                    <mxGeometry relative="1" as="geometry"/>
                </mxCell>
                <mxCell id="wsx7w1LYCG1wdy5AvT3w-49" value="" style="rounded=1;sketch=1;hachureGap=4;jiggle=2;curveFitting=1;orthogonalLoop=1;jettySize=auto;html=1;fontFamily=Architects Daughter;fontSource=https%3A%2F%2Ffonts.googleapis.com%2Fcss%3Ffamily%3DArchitects%2BDaughter;fontSize=16;strokeColor=#003800;strokeWidth=2;" parent="1" source="wsx7w1LYCG1wdy5AvT3w-31" target="wsx7w1LYCG1wdy5AvT3w-48" edge="1">
                    <mxGeometry relative="1" as="geometry"/>
                </mxCell>
                <mxCell id="PnYc2LKM7yusdAFqbgWo-2" value="" style="rounded=1;sketch=1;hachureGap=4;jiggle=2;curveFitting=1;orthogonalLoop=1;jettySize=auto;html=1;fontFamily=Architects Daughter;fontSource=https%3A%2F%2Ffonts.googleapis.com%2Fcss%3Ffamily%3DArchitects%2BDaughter;fontSize=16;strokeColor=#003800;strokeWidth=2;" parent="1" source="wsx7w1LYCG1wdy5AvT3w-31" target="PnYc2LKM7yusdAFqbgWo-1" edge="1">
                    <mxGeometry relative="1" as="geometry"/>
                </mxCell>
                <mxCell id="vYda4CCFtrM1acB5d3r1-6" value="" style="edgeStyle=orthogonalEdgeStyle;rounded=1;sketch=1;hachureGap=4;jiggle=2;curveFitting=1;orthogonalLoop=1;jettySize=auto;html=1;fontFamily=Architects Daughter;fontSource=https%3A%2F%2Ffonts.googleapis.com%2Fcss%3Ffamily%3DArchitects%2BDaughter;fontSize=16;strokeColor=#003800;strokeWidth=2;" parent="1" source="wsx7w1LYCG1wdy5AvT3w-31" target="vYda4CCFtrM1acB5d3r1-5" edge="1">
                    <mxGeometry relative="1" as="geometry"/>
                </mxCell>
                <mxCell id="wsx7w1LYCG1wdy5AvT3w-31" value="Talen" style="whiteSpace=wrap;html=1;fontSize=20;fontFamily=Architects Daughter;sketch=1;hachureGap=4;jiggle=2;curveFitting=1;fontSource=https%3A%2F%2Ffonts.googleapis.com%2Fcss%3Ffamily%3DArchitects%2BDaughter;rounded=1;fillColor=#CDE62C;strokeColor=#003800;fontColor=#000000;fillStyle=solid;strokeWidth=2;fontStyle=1;" parent="1" vertex="1">
                    <mxGeometry x="810" y="510" width="120" height="60" as="geometry"/>
                </mxCell>
                <mxCell id="wsx7w1LYCG1wdy5AvT3w-32" value="" style="rounded=1;sketch=1;hachureGap=4;jiggle=2;curveFitting=1;orthogonalLoop=1;jettySize=auto;html=1;fontFamily=Architects Daughter;fontSource=https%3A%2F%2Ffonts.googleapis.com%2Fcss%3Ffamily%3DArchitects%2BDaughter;fontSize=16;strokeColor=#003800;strokeWidth=2;" parent="1" source="wsx7w1LYCG1wdy5AvT3w-34" target="wsx7w1LYCG1wdy5AvT3w-40" edge="1">
                    <mxGeometry relative="1" as="geometry"/>
                </mxCell>
                <mxCell id="wsx7w1LYCG1wdy5AvT3w-34" value="Programmeren" style="whiteSpace=wrap;html=1;fontSize=20;fontFamily=Architects Daughter;sketch=1;hachureGap=4;jiggle=2;curveFitting=1;fontSource=https%3A%2F%2Ffonts.googleapis.com%2Fcss%3Ffamily%3DArchitects%2BDaughter;rounded=1;fillColor=#CDE62C;strokeColor=#003800;fontColor=#000000;fillStyle=solid;strokeWidth=2;fontStyle=1;" parent="1" vertex="1">
                    <mxGeometry x="800" y="410" width="150" height="60" as="geometry"/>
                </mxCell>
                <mxCell id="wsx7w1LYCG1wdy5AvT3w-35" value="Nederlands" style="whiteSpace=wrap;html=1;fontSize=20;fontFamily=Architects Daughter;sketch=1;hachureGap=4;jiggle=2;curveFitting=1;fontSource=https%3A%2F%2Ffonts.googleapis.com%2Fcss%3Ffamily%3DArchitects%2BDaughter;rounded=1;fillColor=#CDE62C;strokeColor=#003800;fontColor=#000000;fillStyle=solid;strokeWidth=2;fontStyle=1;" parent="1" vertex="1">
                    <mxGeometry x="700" y="640" width="120" height="60" as="geometry"/>
                </mxCell>
                <mxCell id="wsx7w1LYCG1wdy5AvT3w-36" value="Engels" style="whiteSpace=wrap;html=1;fontSize=20;fontFamily=Architects Daughter;sketch=1;hachureGap=4;jiggle=2;curveFitting=1;fontSource=https%3A%2F%2Ffonts.googleapis.com%2Fcss%3Ffamily%3DArchitects%2BDaughter;rounded=1;fillColor=#CDE62C;strokeColor=#003800;fontColor=#000000;fillStyle=solid;strokeWidth=2;fontStyle=1;" parent="1" vertex="1">
                    <mxGeometry x="840" y="680" width="120" height="60" as="geometry"/>
                </mxCell>
                <mxCell id="wsx7w1LYCG1wdy5AvT3w-37" value="" style="rounded=1;sketch=1;hachureGap=4;jiggle=2;curveFitting=1;orthogonalLoop=1;jettySize=auto;html=1;fontFamily=Architects Daughter;fontSource=https%3A%2F%2Ffonts.googleapis.com%2Fcss%3Ffamily%3DArchitects%2BDaughter;fontSize=16;strokeColor=#003800;strokeWidth=2;" parent="1" source="wsx7w1LYCG1wdy5AvT3w-40" target="wsx7w1LYCG1wdy5AvT3w-42" edge="1">
                    <mxGeometry relative="1" as="geometry"/>
                </mxCell>
                <mxCell id="wsx7w1LYCG1wdy5AvT3w-38" value="" style="rounded=1;sketch=1;hachureGap=4;jiggle=2;curveFitting=1;orthogonalLoop=1;jettySize=auto;html=1;fontFamily=Architects Daughter;fontSource=https%3A%2F%2Ffonts.googleapis.com%2Fcss%3Ffamily%3DArchitects%2BDaughter;fontSize=16;strokeColor=#003800;strokeWidth=2;" parent="1" source="wsx7w1LYCG1wdy5AvT3w-40" target="wsx7w1LYCG1wdy5AvT3w-43" edge="1">
                    <mxGeometry relative="1" as="geometry"/>
                </mxCell>
                <mxCell id="wsx7w1LYCG1wdy5AvT3w-39" value="" style="rounded=1;sketch=1;hachureGap=4;jiggle=2;curveFitting=1;orthogonalLoop=1;jettySize=auto;html=1;fontFamily=Architects Daughter;fontSource=https%3A%2F%2Ffonts.googleapis.com%2Fcss%3Ffamily%3DArchitects%2BDaughter;fontSize=16;strokeColor=#003800;strokeWidth=2;" parent="1" source="wsx7w1LYCG1wdy5AvT3w-40" target="wsx7w1LYCG1wdy5AvT3w-44" edge="1">
                    <mxGeometry relative="1" as="geometry"/>
                </mxCell>
                <mxCell id="wsx7w1LYCG1wdy5AvT3w-40" value="Website" style="whiteSpace=wrap;html=1;fontSize=20;fontFamily=Architects Daughter;sketch=1;hachureGap=4;jiggle=2;curveFitting=1;fontSource=https%3A%2F%2Ffonts.googleapis.com%2Fcss%3Ffamily%3DArchitects%2BDaughter;rounded=1;fillColor=#CDE62C;strokeColor=#003800;fontColor=#000000;fillStyle=solid;strokeWidth=2;fontStyle=1;" parent="1" vertex="1">
                    <mxGeometry x="1020" y="420" width="120" height="60" as="geometry"/>
                </mxCell>
                <mxCell id="wsx7w1LYCG1wdy5AvT3w-42" value="HTML" style="whiteSpace=wrap;html=1;fontSize=20;fontFamily=Architects Daughter;sketch=1;hachureGap=4;jiggle=2;curveFitting=1;fontSource=https%3A%2F%2Ffonts.googleapis.com%2Fcss%3Ffamily%3DArchitects%2BDaughter;rounded=1;fillColor=#CDE62C;strokeColor=#003800;fontColor=#000000;fillStyle=solid;strokeWidth=2;fontStyle=1;" parent="1" vertex="1">
                    <mxGeometry x="1220" y="410" width="120" height="60" as="geometry"/>
                </mxCell>
                <mxCell id="wsx7w1LYCG1wdy5AvT3w-43" value="CSS" style="whiteSpace=wrap;html=1;fontSize=20;fontFamily=Architects Daughter;sketch=1;hachureGap=4;jiggle=2;curveFitting=1;fontSource=https%3A%2F%2Ffonts.googleapis.com%2Fcss%3Ffamily%3DArchitects%2BDaughter;rounded=1;fillColor=#CDE62C;strokeColor=#003800;fontColor=#000000;fillStyle=solid;strokeWidth=2;fontStyle=1;" parent="1" vertex="1">
                    <mxGeometry x="1041" y="324" width="120" height="60" as="geometry"/>
                </mxCell>
                <mxCell id="wsx7w1LYCG1wdy5AvT3w-44" value="JS&lt;br&gt;(Javascript)" style="whiteSpace=wrap;html=1;fontSize=20;fontFamily=Architects Daughter;sketch=1;hachureGap=4;jiggle=2;curveFitting=1;fontSource=https%3A%2F%2Ffonts.googleapis.com%2Fcss%3Ffamily%3DArchitects%2BDaughter;rounded=1;fillColor=#CDE62C;strokeColor=#003800;fontColor=#000000;fillStyle=solid;strokeWidth=2;fontStyle=1;" parent="1" vertex="1">
                    <mxGeometry x="1170" y="490" width="120" height="60" as="geometry"/>
                </mxCell>
                <mxCell id="PnYc2LKM7yusdAFqbgWo-4" value="" style="rounded=1;sketch=1;hachureGap=4;jiggle=2;curveFitting=1;orthogonalLoop=1;jettySize=auto;html=1;fontFamily=Architects Daughter;fontSource=https%3A%2F%2Ffonts.googleapis.com%2Fcss%3Ffamily%3DArchitects%2BDaughter;fontSize=16;strokeColor=#003800;strokeWidth=2;" parent="1" source="wsx7w1LYCG1wdy5AvT3w-47" target="PnYc2LKM7yusdAFqbgWo-3" edge="1">
                    <mxGeometry relative="1" as="geometry"/>
                </mxCell>
                <mxCell id="vYda4CCFtrM1acB5d3r1-4" style="rounded=1;sketch=1;hachureGap=4;jiggle=2;curveFitting=1;orthogonalLoop=1;jettySize=auto;html=1;exitX=1;exitY=0.322;exitDx=0;exitDy=0;entryX=0;entryY=0.65;entryDx=0;entryDy=0;fontFamily=Architects Daughter;fontSource=https%3A%2F%2Ffonts.googleapis.com%2Fcss%3Ffamily%3DArchitects%2BDaughter;fontSize=16;entryPerimeter=0;exitPerimeter=0;strokeColor=#003800;strokeWidth=2;" parent="1" source="wsx7w1LYCG1wdy5AvT3w-47" target="vYda4CCFtrM1acB5d3r1-1" edge="1">
                    <mxGeometry relative="1" as="geometry"/>
                </mxCell>
                <mxCell id="wsx7w1LYCG1wdy5AvT3w-47" value="Chaymae" style="ellipse;whiteSpace=wrap;html=1;aspect=fixed;rounded=1;sketch=1;hachureGap=4;jiggle=2;curveFitting=1;fontFamily=Architects Daughter;fontSource=https%3A%2F%2Ffonts.googleapis.com%2Fcss%3Ffamily%3DArchitects%2BDaughter;fontSize=20;fillColor=#CDE62C;strokeColor=#003800;fontColor=#000000;fillStyle=solid;strokeWidth=2;fontStyle=1;" parent="1" vertex="1">
                    <mxGeometry x="590" y="330" width="90" height="90" as="geometry"/>
                </mxCell>
                <mxCell id="wsx7w1LYCG1wdy5AvT3w-48" value="Frans" style="whiteSpace=wrap;html=1;fontSize=20;fontFamily=Architects Daughter;sketch=1;hachureGap=4;jiggle=2;curveFitting=1;fontSource=https%3A%2F%2Ffonts.googleapis.com%2Fcss%3Ffamily%3DArchitects%2BDaughter;rounded=1;fillColor=#CDE62C;strokeColor=#003800;fontColor=#000000;fillStyle=solid;strokeWidth=2;fontStyle=1;" parent="1" vertex="1">
                    <mxGeometry x="980" y="670" width="120" height="60" as="geometry"/>
                </mxCell>
                <mxCell id="PnYc2LKM7yusdAFqbgWo-1" value="Arabisch" style="whiteSpace=wrap;html=1;fontSize=20;fontFamily=Architects Daughter;sketch=1;hachureGap=4;jiggle=2;curveFitting=1;fontSource=https%3A%2F%2Ffonts.googleapis.com%2Fcss%3Ffamily%3DArchitects%2BDaughter;rounded=1;fillColor=#CDE62C;strokeColor=#003800;fontColor=#000000;fillStyle=solid;strokeWidth=2;fontStyle=1;" parent="1" vertex="1">
                    <mxGeometry x="1020" y="590" width="120" height="60" as="geometry"/>
                </mxCell>
                <mxCell id="PnYc2LKM7yusdAFqbgWo-3" value="Sociaal" style="whiteSpace=wrap;html=1;fontSize=20;fontFamily=Architects Daughter;rounded=1;sketch=1;hachureGap=4;jiggle=2;curveFitting=1;fontSource=https%3A%2F%2Ffonts.googleapis.com%2Fcss%3Ffamily%3DArchitects%2BDaughter;fillColor=#CDE62C;strokeColor=#003800;fontColor=#000000;fillStyle=solid;strokeWidth=2;fontStyle=1;" parent="1" vertex="1">
                    <mxGeometry x="594" y="231" width="120" height="60" as="geometry"/>
                </mxCell>
                <mxCell id="vYda4CCFtrM1acB5d3r1-3" style="rounded=1;sketch=1;hachureGap=4;jiggle=2;curveFitting=1;orthogonalLoop=1;jettySize=auto;html=1;exitX=1;exitY=0.5;exitDx=0;exitDy=0;entryX=0;entryY=0.5;entryDx=0;entryDy=0;fontFamily=Architects Daughter;fontSource=https%3A%2F%2Ffonts.googleapis.com%2Fcss%3Ffamily%3DArchitects%2BDaughter;fontSize=16;strokeColor=#003800;strokeWidth=2;" parent="1" source="vYda4CCFtrM1acB5d3r1-1" target="wsx7w1LYCG1wdy5AvT3w-43" edge="1">
                    <mxGeometry relative="1" as="geometry"/>
                </mxCell>
                <mxCell id="dIdDvlBMzvf3TKrjnCNb-4" value="" style="edgeStyle=none;html=1;fontSize=16;fontFamily=Architects Daughter;strokeColor=#003800;sketch=1;hachureGap=4;jiggle=2;curveFitting=1;fontSource=https%3A%2F%2Ffonts.googleapis.com%2Fcss%3Ffamily%3DArchitects%2BDaughter;strokeWidth=2;" parent="1" source="vYda4CCFtrM1acB5d3r1-1" target="dIdDvlBMzvf3TKrjnCNb-3" edge="1">
                    <mxGeometry relative="1" as="geometry"/>
                </mxCell>
                <mxCell id="8n5ZXtMscHPf94V2Bltu-2" value="" style="rounded=1;sketch=1;hachureGap=4;jiggle=2;curveFitting=1;orthogonalLoop=1;jettySize=auto;html=1;fontFamily=Architects Daughter;fontSource=https%3A%2F%2Ffonts.googleapis.com%2Fcss%3Ffamily%3DArchitects%2BDaughter;fontSize=16;strokeColor=#003800;strokeWidth=2;" parent="1" source="vYda4CCFtrM1acB5d3r1-1" target="8n5ZXtMscHPf94V2Bltu-1" edge="1">
                    <mxGeometry relative="1" as="geometry"/>
                </mxCell>
                <mxCell id="vYda4CCFtrM1acB5d3r1-1" value="Design" style="whiteSpace=wrap;html=1;fontSize=20;fontFamily=Architects Daughter;sketch=1;hachureGap=4;jiggle=2;curveFitting=1;fontSource=https%3A%2F%2Ffonts.googleapis.com%2Fcss%3Ffamily%3DArchitects%2BDaughter;rounded=1;fillColor=#CDE62C;strokeColor=#003800;fontColor=#000000;fillStyle=solid;strokeWidth=2;fontStyle=1;" parent="1" vertex="1">
                    <mxGeometry x="759" y="317" width="120" height="60" as="geometry"/>
                </mxCell>
                <mxCell id="vYda4CCFtrM1acB5d3r1-5" value="Marrokaans" style="whiteSpace=wrap;html=1;fontSize=20;fontFamily=Architects Daughter;sketch=1;hachureGap=4;jiggle=2;curveFitting=1;fontSource=https%3A%2F%2Ffonts.googleapis.com%2Fcss%3Ffamily%3DArchitects%2BDaughter;rounded=1;fillColor=#CDE62C;strokeColor=#003800;fontColor=#000000;fillStyle=solid;strokeWidth=2;fontStyle=1;" parent="1" vertex="1">
                    <mxGeometry x="1020" y="510" width="120" height="60" as="geometry"/>
                </mxCell>
                <mxCell id="dIdDvlBMzvf3TKrjnCNb-3" value="Fotografie" style="whiteSpace=wrap;html=1;fontSize=20;fontFamily=Architects Daughter;sketch=1;hachureGap=4;jiggle=2;curveFitting=1;fontSource=https%3A%2F%2Ffonts.googleapis.com%2Fcss%3Ffamily%3DArchitects%2BDaughter;rounded=1;fillColor=#CDE62C;strokeColor=#003800;fontColor=#000000;fillStyle=solid;strokeWidth=2;fontStyle=1;" parent="1" vertex="1">
                    <mxGeometry x="946" y="246" width="120" height="60" as="geometry"/>
                </mxCell>
                <mxCell id="8n5ZXtMscHPf94V2Bltu-1" value="kleding" style="whiteSpace=wrap;html=1;fontSize=20;fontFamily=Architects Daughter;sketch=1;hachureGap=4;jiggle=2;curveFitting=1;fontSource=https%3A%2F%2Ffonts.googleapis.com%2Fcss%3Ffamily%3DArchitects%2BDaughter;rounded=1;fillColor=#CDE62C;strokeColor=#003800;fontColor=#000000;fillStyle=solid;strokeWidth=2;fontStyle=1;" parent="1" vertex="1">
                    <mxGeometry x="790" y="217" width="120" height="60" as="geometry"/>
                </mxCell>
            </root>
        </mxGraphModel>
    </diagram>
</mxfile>